# Blender v3.0.0 OBJ File: ''
# www.blender.org
o Plane
v -8.000000 2.000000 8.000000
v 8.000000 0.000000 8.000000
v -8.000000 1.000000 -8.000000
v 8.000000 0.977778 -8.000000
v -8.000000 1.000000 0.000000
v 0.000000 0.000000 8.000000
v 8.000000 0.977778 0.000000
v 0.000000 0.000000 -8.000000
v 0.000000 0.000000 0.000000
v -8.000000 2.000000 4.000000
v 4.000000 0.000000 8.000000
v 8.000000 1.977778 -4.000000
v -4.000000 1.000000 -8.000000
v -8.000000 1.000000 -4.000000
v -4.000000 1.000000 8.000000
v 8.000000 0.000000 4.000000
v 4.000000 0.977778 -8.000000
v 0.000000 0.000000 -4.000000
v 0.000000 0.000000 4.000000
v -4.000000 1.000000 0.000000
v 4.000000 0.977778 0.000000
v 4.000000 0.000000 4.000000
v -4.000000 1.000000 4.000000
v -4.000000 1.000000 -4.000000
v 4.000000 0.977778 -4.000000
v -8.000000 2.000000 6.000000
v 6.000000 0.000000 8.000000
v 8.000000 1.977778 -6.000000
v -6.000000 1.000000 -8.000000
v -8.000000 1.000000 -2.000000
v -2.000000 1.000000 8.000000
v 8.000000 0.000000 2.000000
v 2.000000 0.000000 -8.000000
v 0.000000 0.000000 -6.000000
v 0.000000 0.000000 2.000000
v -6.000000 1.000000 0.000000
v 2.000000 0.000000 0.000000
v -8.000000 1.000000 2.000000
v 2.000000 0.000000 8.000000
v 8.000000 1.977778 -2.000000
v -2.000000 1.000000 -8.000000
v -8.000000 1.000000 -6.000000
v -6.000000 2.000000 8.000000
v 8.000000 0.000000 6.000000
v 6.000000 0.977778 -8.000000
v 0.000000 0.000000 -2.000000
v 0.000000 0.000000 6.000000
v -2.000000 1.000000 0.000000
v 6.000000 0.977778 0.000000
v 4.000000 0.000000 2.000000
v 4.000000 0.000000 6.000000
v 2.000000 0.000000 4.000000
v 6.000000 0.000000 4.000000
v -4.000000 1.000000 2.000000
v -4.000000 1.000000 6.000000
v -6.000000 2.000000 4.000000
v -2.000000 1.000000 4.000000
v -4.000000 1.000000 -6.000000
v -4.000000 1.000000 -2.000000
v -6.000000 1.000000 -4.000000
v -2.000000 1.000000 -4.000000
v 4.000000 0.977778 -6.000000
v 4.000000 0.977778 -2.000000
v 2.000000 0.000000 -4.000000
v 6.000000 1.977778 -4.000000
v 6.000000 1.977778 -2.000000
v 2.000000 0.000000 -2.000000
v 2.000000 0.000000 -6.000000
v -2.000000 1.000000 -2.000000
v -6.000000 1.000000 -2.000000
v -6.000000 1.000000 -6.000000
v -2.000000 1.000000 6.000000
v -6.000000 2.000000 6.000000
v -6.000000 1.000000 2.000000
v 6.000000 0.000000 6.000000
v 2.000000 0.000000 6.000000
v 2.000000 0.000000 2.000000
v 6.000000 0.000000 2.000000
v -2.000000 1.000000 2.000000
v -2.000000 1.000000 -6.000000
v 6.000000 1.977778 -6.000000
v -8.000000 2.000000 7.000000
v 7.000000 0.000000 8.000000
v 8.000000 1.977778 -7.000000
v -7.000000 1.000000 -8.000000
v -8.000000 1.000000 -1.000000
v -1.000000 1.000000 8.000000
v 8.000000 0.000000 1.000000
v 1.000000 0.000000 -8.000000
v 0.000000 0.000000 -7.000000
v 0.000000 0.000000 1.000000
v -7.000000 1.000000 0.000000
v 1.000000 0.000000 0.000000
v -8.000000 2.000000 3.000000
v 3.000000 0.000000 8.000000
v 8.000000 1.977778 -3.000000
v -3.000000 1.000000 -8.000000
v -8.000000 1.000000 -5.000000
v -5.000000 2.000000 8.000000
v 8.000000 0.000000 5.000000
v 5.000000 0.977778 -8.000000
v 0.000000 0.000000 -3.000000
v 0.000000 0.000000 5.000000
v -3.000000 1.000000 0.000000
v 5.000000 0.977778 0.000000
v 4.000000 0.000000 1.000000
v 4.000000 0.000000 5.000000
v 1.000000 0.000000 4.000000
v 5.000000 0.000000 4.000000
v -4.000000 1.000000 1.000000
v -4.000000 1.000000 5.000000
v -7.000000 2.000000 4.000000
v -3.000000 1.000000 4.000000
v -4.000000 1.000000 -7.000000
v -4.000000 1.000000 -3.000000
v -7.000000 1.000000 -4.000000
v -3.000000 1.000000 -4.000000
v 4.000000 0.977778 -7.000000
v 4.000000 0.977778 -3.000000
v 1.000000 0.000000 -4.000000
v 5.000000 1.977778 -4.000000
v -8.000000 2.000000 5.000000
v 5.000000 0.000000 8.000000
v 8.000000 1.977778 -5.000000
v -5.000000 1.000000 -8.000000
v -8.000000 1.000000 -3.000000
v -3.000000 1.000000 8.000000
v 8.000000 0.000000 3.000000
v 3.000000 0.000000 -8.000000
v 0.000000 0.000000 -5.000000
v 0.000000 0.000000 3.000000
v -5.000000 1.000000 0.000000
v 3.000000 0.000000 0.000000
v -8.000000 1.000000 1.000000
v 1.000000 0.000000 8.000000
v 8.000000 1.977778 -1.000000
v -1.000000 1.000000 -8.000000
v -8.000000 1.000000 -7.000000
v -7.000000 2.000000 8.000000
v 8.000000 0.000000 7.000000
v 7.000000 0.977778 -8.000000
v 0.000000 0.000000 -1.000000
v 0.000000 0.000000 7.000000
v -1.000000 1.000000 0.000000
v 7.000000 0.977778 0.000000
v 4.000000 0.000000 3.000000
v 4.000000 0.000000 7.000000
v 3.000000 0.000000 4.000000
v 7.000000 0.000000 4.000000
v -4.000000 1.000000 3.000000
v -4.000000 1.000000 7.000000
v -5.000000 2.000000 4.000000
v -1.000000 1.000000 4.000000
v -4.000000 1.000000 -5.000000
v -4.000000 1.000000 -1.000000
v -5.000000 1.000000 -4.000000
v -1.000000 1.000000 -4.000000
v 4.000000 0.977778 -5.000000
v 4.000000 0.977778 -1.000000
v 3.000000 0.000000 -4.000000
v 7.000000 1.977778 -4.000000
v 6.000000 1.977778 -3.000000
v 6.000000 1.977778 -1.000000
v 5.000000 1.977778 -2.000000
v 7.000000 1.977778 -2.000000
v 2.000000 0.000000 -3.000000
v 2.000000 0.000000 -1.000000
v 1.000000 0.000000 -2.000000
v 3.000000 0.000000 -2.000000
v 2.000000 0.000000 -7.000000
v 2.000000 0.000000 -5.000000
v 1.000000 0.000000 -6.000000
v 3.000000 0.000000 -6.000000
v -2.000000 1.000000 -3.000000
v -2.000000 1.000000 -1.000000
v -3.000000 1.000000 -2.000000
v -1.000000 1.000000 -2.000000
v -6.000000 1.000000 -3.000000
v -6.000000 1.000000 -1.000000
v -7.000000 1.000000 -2.000000
v -5.000000 1.000000 -2.000000
v -6.000000 1.000000 -7.000000
v -6.000000 1.000000 -5.000000
v -7.000000 1.000000 -6.000000
v -5.000000 1.000000 -6.000000
v -2.000000 1.000000 5.000000
v -2.000000 1.000000 7.000000
v -3.000000 1.000000 6.000000
v -1.000000 1.000000 6.000000
v -6.000000 2.000000 5.000000
v -6.000000 2.000000 7.000000
v -7.000000 2.000000 6.000000
v -5.000000 2.000000 6.000000
v -6.000000 1.000000 1.000000
v -6.000000 2.000000 3.000000
v -7.000000 1.000000 2.000000
v -5.000000 1.000000 2.000000
v 6.000000 0.000000 5.000000
v 6.000000 0.000000 7.000000
v 5.000000 0.000000 6.000000
v 7.000000 0.000000 6.000000
v 2.000000 0.000000 5.000000
v 2.000000 0.000000 7.000000
v 1.000000 0.000000 6.000000
v 3.000000 0.000000 6.000000
v 2.000000 0.000000 1.000000
v 2.000000 0.000000 3.000000
v 1.000000 0.000000 2.000000
v 3.000000 0.000000 2.000000
v 6.000000 0.000000 1.000000
v 6.000000 0.000000 3.000000
v 5.000000 0.000000 2.000000
v 7.000000 0.000000 2.000000
v -2.000000 1.000000 1.000000
v -2.000000 1.000000 3.000000
v -3.000000 1.000000 2.000000
v -1.000000 1.000000 2.000000
v -2.000000 1.000000 -7.000000
v -2.000000 1.000000 -5.000000
v -3.000000 1.000000 -6.000000
v -1.000000 1.000000 -6.000000
v 6.000000 1.977778 -7.000000
v 6.000000 1.977778 -5.000000
v 5.000000 1.977778 -6.000000
v 7.000000 1.977778 -6.000000
v 7.000000 1.977778 -5.000000
v 5.000000 1.977778 -5.000000
v 5.000000 1.977778 -7.000000
v -1.000000 1.000000 -5.000000
v -3.000000 1.000000 -5.000000
v -3.000000 1.000000 -7.000000
v -1.000000 1.000000 3.000000
v -3.000000 1.000000 3.000000
v -3.000000 1.000000 1.000000
v 7.000000 0.000000 3.000000
v 5.000000 0.000000 3.000000
v 5.000000 0.000000 1.000000
v 3.000000 0.000000 3.000000
v 1.000000 0.000000 3.000000
v 1.000000 0.000000 1.000000
v 3.000000 0.000000 7.000000
v 1.000000 0.000000 7.000000
v 1.000000 0.000000 5.000000
v 7.000000 0.000000 7.000000
v 5.000000 0.000000 7.000000
v 5.000000 0.000000 5.000000
v -5.000000 2.000000 3.000000
v -7.000000 2.000000 3.000000
v -7.000000 1.000000 1.000000
v -5.000000 2.000000 7.000000
v -7.000000 2.000000 7.000000
v -7.000000 2.000000 5.000000
v -1.000000 1.000000 7.000000
v -3.000000 1.000000 7.000000
v -3.000000 1.000000 5.000000
v -5.000000 1.000000 -5.000000
v -7.000000 1.000000 -5.000000
v -7.000000 1.000000 -7.000000
v -5.000000 1.000000 -1.000000
v -7.000000 1.000000 -1.000000
v -7.000000 1.000000 -3.000000
v -1.000000 1.000000 -1.000000
v -3.000000 1.000000 -1.000000
v -3.000000 1.000000 -3.000000
v 3.000000 0.000000 -5.000000
v 1.000000 0.000000 -5.000000
v 1.000000 0.000000 -7.000000
v 3.000000 0.000000 -1.000000
v 1.000000 0.000000 -1.000000
v 1.000000 0.000000 -3.000000
v 7.000000 1.977778 -1.000000
v 5.000000 1.977778 -1.000000
v 5.000000 1.977778 -3.000000
v 7.000000 1.977778 -3.000000
v 3.000000 0.000000 -3.000000
v 3.000000 0.000000 -7.000000
v -1.000000 1.000000 -3.000000
v -5.000000 1.000000 -3.000000
v -5.000000 1.000000 -7.000000
v -1.000000 1.000000 5.000000
v -5.000000 2.000000 5.000000
v -5.000000 1.000000 1.000000
v 7.000000 0.000000 5.000000
v 3.000000 0.000000 5.000000
v 3.000000 0.000000 1.000000
v 7.000000 0.000000 1.000000
v -1.000000 1.000000 1.000000
v -1.000000 1.000000 -7.000000
v 7.000000 1.977778 -7.000000
vn 0.0000 0.7071 -0.7071
vn 0.7071 0.7071 0.0000
vn 0.0000 0.7150 0.6991
vn 0.0000 1.0000 0.0000
vn -0.6991 0.7150 0.0000
vn 0.5774 0.5774 -0.5774
vn -0.7071 0.7071 0.0000
vn 0.0000 0.7071 0.7071
vn -0.5730 0.5860 0.5730
vn -0.5774 0.5774 -0.5774
vn -0.5774 0.5774 0.5774
s off
f 84//1 141//1 289//1
f 90//2 137//2 288//2
f 91//2 144//2 287//2
f 88//3 145//3 286//3
f 106//4 133//4 285//4
f 107//4 148//4 284//4
f 100//4 149//4 283//4
f 110//4 132//4 282//4
f 111//2 152//2 281//2
f 103//2 153//2 280//2
f 114//4 125//4 279//4
f 115//4 156//4 278//4
f 102//2 157//2 277//2
f 118//5 129//5 276//5
f 119//5 160//5 275//5
f 96//4 161//4 274//4
f 162//4 121//4 273//4
f 163//4 164//4 272//4
f 136//4 165//4 271//4
f 166//4 120//4 270//4
f 167//4 168//4 269//4
f 159//5 169//5 268//5
f 170//4 89//4 267//4
f 171//4 172//4 266//4
f 158//5 173//5 265//5
f 174//4 117//4 264//4
f 175//4 176//4 263//4
f 142//2 177//2 262//2
f 178//4 116//4 261//4
f 179//4 180//4 260//4
f 155//4 181//4 259//4
f 182//4 85//4 258//4
f 183//4 184//4 257//4
f 154//4 185//4 256//4
f 186//4 113//4 255//4
f 187//4 188//4 254//4
f 143//2 189//2 253//2
f 190//4 112//4 252//4
f 191//4 192//4 251//4
f 151//2 193//2 250//2
f 194//4 92//4 249//4
f 195//1 196//1 248//1
f 150//6 197//6 247//6
f 198//4 109//4 246//4
f 199//4 200//4 245//4
f 140//4 201//4 244//4
f 202//4 108//4 243//4
f 203//4 204//4 242//4
f 147//4 205//4 241//4
f 206//4 93//4 240//4
f 207//4 208//4 239//4
f 146//4 209//4 238//4
f 210//3 105//3 237//3
f 211//4 212//4 236//4
f 128//4 213//4 235//4
f 214//4 104//4 234//4
f 215//4 216//4 233//4
f 131//2 217//2 232//2
f 218//4 97//4 231//4
f 219//4 220//4 230//4
f 130//2 221//2 229//2
f 222//1 101//1 228//1
f 223//4 224//4 227//4
f 124//4 225//4 226//4
f 226//4 81//4 223//4
f 161//4 223//4 65//4
f 12//4 226//4 161//4
f 227//7 62//7 158//7
f 121//7 158//7 25//7
f 65//4 227//4 121//4
f 118//4 101//4 17//4
f 224//7 118//7 62//7
f 81//4 228//4 224//4
f 229//4 80//4 219//4
f 157//4 219//4 61//4
f 18//2 229//2 157//2
f 230//4 58//4 154//4
f 117//4 154//4 24//4
f 61//4 230//4 117//4
f 231//4 13//4 114//4
f 220//4 114//4 58//4
f 80//4 231//4 220//4
f 232//4 79//4 215//4
f 153//4 215//4 57//4
f 19//2 232//2 153//2
f 233//4 54//4 150//4
f 113//4 150//4 23//4
f 57//4 233//4 113//4
f 234//4 20//4 110//4
f 216//4 110//4 54//4
f 79//4 234//4 216//4
f 235//4 78//4 211//4
f 149//4 211//4 53//4
f 16//4 235//4 149//4
f 236//4 50//4 146//4
f 109//4 146//4 22//4
f 53//4 236//4 109//4
f 237//3 21//3 106//3
f 212//4 106//4 50//4
f 78//4 237//4 212//4
f 238//4 77//4 207//4
f 148//4 207//4 52//4
f 22//4 238//4 148//4
f 239//4 35//4 131//4
f 108//4 131//4 19//4
f 52//4 239//4 108//4
f 240//4 9//4 91//4
f 208//4 91//4 35//4
f 77//4 240//4 208//4
f 241//4 76//4 203//4
f 95//4 203//4 39//4
f 11//4 241//4 95//4
f 242//4 47//4 143//4
f 135//4 143//4 6//4
f 39//4 242//4 135//4
f 243//4 19//4 103//4
f 204//4 103//4 47//4
f 76//4 243//4 204//4
f 244//4 75//4 199//4
f 83//4 199//4 27//4
f 2//4 244//4 83//4
f 245//4 51//4 147//4
f 123//4 147//4 11//4
f 27//4 245//4 123//4
f 246//4 22//4 107//4
f 200//4 107//4 51//4
f 75//4 246//4 200//4
f 247//1 74//1 195//1
f 152//4 195//4 56//4
f 23//2 247//2 152//2
f 248//1 38//1 94//1
f 112//4 94//4 10//4
f 56//4 248//4 112//4
f 249//4 5//4 134//4
f 196//4 134//4 38//4
f 74//4 249//4 196//4
f 250//4 73//4 191//4
f 99//4 191//4 43//4
f 15//2 250//2 99//2
f 251//4 26//4 82//4
f 139//4 82//4 1//4
f 43//4 251//4 139//4
f 252//4 10//4 122//4
f 192//4 122//4 26//4
f 73//4 252//4 192//4
f 253//4 72//4 187//4
f 87//4 187//4 31//4
f 6//2 253//2 87//2
f 254//4 55//4 151//4
f 127//4 151//4 15//4
f 31//4 254//4 127//4
f 255//4 23//4 111//4
f 188//4 111//4 55//4
f 72//4 255//4 188//4
f 256//4 71//4 183//4
f 156//4 183//4 60//4
f 24//4 256//4 156//4
f 257//4 42//4 98//4
f 116//4 98//4 14//4
f 60//4 257//4 116//4
f 258//4 3//4 138//4
f 184//4 138//4 42//4
f 71//4 258//4 184//4
f 259//4 70//4 179//4
f 132//4 179//4 36//4
f 20//4 259//4 132//4
f 260//4 30//4 86//4
f 92//4 86//4 5//4
f 36//4 260//4 92//4
f 261//4 14//4 126//4
f 180//4 126//4 30//4
f 70//4 261//4 180//4
f 262//4 69//4 175//4
f 144//4 175//4 48//4
f 9//2 262//2 144//2
f 263//4 59//4 155//4
f 104//4 155//4 20//4
f 48//4 263//4 104//4
f 264//4 24//4 115//4
f 176//4 115//4 59//4
f 69//4 264//4 176//4
f 265//4 68//4 171//4
f 160//4 171//4 64//4
f 25//5 265//5 160//5
f 266//4 34//4 130//4
f 120//4 130//4 18//4
f 64//4 266//4 120//4
f 267//4 8//4 90//4
f 172//4 90//4 34//4
f 68//4 267//4 172//4
f 268//4 67//4 167//4
f 133//4 167//4 37//4
f 21//5 268//5 133//5
f 269//4 46//4 142//4
f 93//4 142//4 9//4
f 37//4 269//4 93//4
f 270//4 18//4 102//4
f 168//4 102//4 46//4
f 67//4 270//4 168//4
f 271//4 66//4 163//4
f 145//8 163//8 49//8
f 7//8 271//8 145//8
f 272//7 63//7 159//7
f 105//4 159//4 21//4
f 49//8 272//8 105//8
f 273//7 25//7 119//7
f 164//7 119//7 63//7
f 66//4 273//4 164//4
f 274//4 65//4 162//4
f 165//4 162//4 66//4
f 40//4 274//4 165//4
f 275//4 64//4 166//4
f 169//4 166//4 67//4
f 63//5 275//5 169//5
f 276//4 33//4 170//4
f 173//4 170//4 68//4
f 62//5 276//5 173//5
f 277//4 61//4 174//4
f 177//4 174//4 69//4
f 46//2 277//2 177//2
f 278//4 60//4 178//4
f 181//4 178//4 70//4
f 59//4 278//4 181//4
f 279//4 29//4 182//4
f 185//4 182//4 71//4
f 58//4 279//4 185//4
f 280//4 57//4 186//4
f 189//4 186//4 72//4
f 47//2 280//2 189//2
f 281//4 56//4 190//4
f 193//4 190//4 73//4
f 55//2 281//2 193//2
f 282//4 36//4 194//4
f 197//4 194//4 74//4
f 54//4 282//4 197//4
f 283//4 53//4 198//4
f 201//4 198//4 75//4
f 44//4 283//4 201//4
f 284//4 52//4 202//4
f 205//4 202//4 76//4
f 51//4 284//4 205//4
f 285//4 37//4 206//4
f 209//4 206//4 77//4
f 50//4 285//4 209//4
f 286//3 49//3 210//3
f 213//4 210//4 78//4
f 32//4 286//4 213//4
f 287//4 48//4 214//4
f 217//4 214//4 79//4
f 35//2 287//2 217//2
f 288//4 41//4 218//4
f 221//4 218//4 80//4
f 34//2 288//2 221//2
f 289//1 45//1 222//1
f 225//4 222//4 81//4
f 28//4 289//4 225//4
f 84//1 4//1 141//1
f 90//2 8//2 137//2
f 91//2 9//2 144//2
f 88//3 7//3 145//3
f 106//9 21//9 133//9
f 107//4 22//4 148//4
f 100//4 16//4 149//4
f 110//4 20//4 132//4
f 111//2 23//2 152//2
f 103//2 19//2 153//2
f 114//4 13//4 125//4
f 115//4 24//4 156//4
f 102//2 18//2 157//2
f 118//5 17//5 129//5
f 119//5 25//5 160//5
f 96//4 12//4 161//4
f 162//4 65//4 121//4
f 163//4 66//4 164//4
f 136//4 40//4 165//4
f 166//4 64//4 120//4
f 167//4 67//4 168//4
f 159//5 63//5 169//5
f 170//4 33//4 89//4
f 171//4 68//4 172//4
f 158//5 62//5 173//5
f 174//4 61//4 117//4
f 175//4 69//4 176//4
f 142//2 46//2 177//2
f 178//4 60//4 116//4
f 179//4 70//4 180//4
f 155//4 59//4 181//4
f 182//4 29//4 85//4
f 183//4 71//4 184//4
f 154//4 58//4 185//4
f 186//4 57//4 113//4
f 187//4 72//4 188//4
f 143//2 47//2 189//2
f 190//4 56//4 112//4
f 191//4 73//4 192//4
f 151//2 55//2 193//2
f 194//4 36//4 92//4
f 195//1 74//1 196//1
f 150//4 54//4 197//4
f 198//4 53//4 109//4
f 199//4 75//4 200//4
f 140//4 44//4 201//4
f 202//4 52//4 108//4
f 203//4 76//4 204//4
f 147//4 51//4 205//4
f 206//4 37//4 93//4
f 207//4 77//4 208//4
f 146//4 50//4 209//4
f 210//3 49//3 105//3
f 211//4 78//4 212//4
f 128//4 32//4 213//4
f 214//4 48//4 104//4
f 215//4 79//4 216//4
f 131//2 35//2 217//2
f 218//4 41//4 97//4
f 219//4 80//4 220//4
f 130//2 34//2 221//2
f 222//1 45//1 101//1
f 223//4 81//4 224//4
f 124//4 28//4 225//4
f 226//4 225//4 81//4
f 161//4 226//4 223//4
f 12//4 124//4 226//4
f 227//7 224//7 62//7
f 121//7 227//7 158//7
f 65//4 223//4 227//4
f 118//10 228//10 101//10
f 224//7 228//7 118//7
f 81//4 222//4 228//4
f 229//4 221//4 80//4
f 157//4 229//4 219//4
f 18//2 130//2 229//2
f 230//4 220//4 58//4
f 117//4 230//4 154//4
f 61//4 219//4 230//4
f 231//4 97//4 13//4
f 220//4 231//4 114//4
f 80//4 218//4 231//4
f 232//4 217//4 79//4
f 153//4 232//4 215//4
f 19//2 131//2 232//2
f 233//4 216//4 54//4
f 113//4 233//4 150//4
f 57//4 215//4 233//4
f 234//4 104//4 20//4
f 216//4 234//4 110//4
f 79//4 214//4 234//4
f 235//4 213//4 78//4
f 149//4 235//4 211//4
f 16//4 128//4 235//4
f 236//4 212//4 50//4
f 109//4 236//4 146//4
f 53//4 211//4 236//4
f 237//3 105//3 21//3
f 212//4 237//4 106//4
f 78//4 210//4 237//4
f 238//4 209//4 77//4
f 148//4 238//4 207//4
f 22//4 146//4 238//4
f 239//4 208//4 35//4
f 108//4 239//4 131//4
f 52//4 207//4 239//4
f 240//4 93//4 9//4
f 208//4 240//4 91//4
f 77//4 206//4 240//4
f 241//4 205//4 76//4
f 95//4 241//4 203//4
f 11//4 147//4 241//4
f 242//4 204//4 47//4
f 135//4 242//4 143//4
f 39//4 203//4 242//4
f 243//4 108//4 19//4
f 204//4 243//4 103//4
f 76//4 202//4 243//4
f 244//4 201//4 75//4
f 83//4 244//4 199//4
f 2//4 140//4 244//4
f 245//4 200//4 51//4
f 123//4 245//4 147//4
f 27//4 199//4 245//4
f 246//4 109//4 22//4
f 200//4 246//4 107//4
f 75//4 198//4 246//4
f 247//1 197//1 74//1
f 152//4 247//4 195//4
f 23//2 150//2 247//2
f 248//1 196//1 38//1
f 112//4 248//4 94//4
f 56//4 195//4 248//4
f 249//4 92//4 5//4
f 196//4 249//4 134//4
f 74//4 194//4 249//4
f 250//4 193//4 73//4
f 99//4 250//4 191//4
f 15//2 151//2 250//2
f 251//4 192//4 26//4
f 139//4 251//4 82//4
f 43//4 191//4 251//4
f 252//4 112//4 10//4
f 192//4 252//4 122//4
f 73//4 190//4 252//4
f 253//4 189//4 72//4
f 87//4 253//4 187//4
f 6//2 143//2 253//2
f 254//4 188//4 55//4
f 127//4 254//4 151//4
f 31//4 187//4 254//4
f 255//4 113//4 23//4
f 188//4 255//4 111//4
f 72//4 186//4 255//4
f 256//4 185//4 71//4
f 156//4 256//4 183//4
f 24//4 154//4 256//4
f 257//4 184//4 42//4
f 116//4 257//4 98//4
f 60//4 183//4 257//4
f 258//4 85//4 3//4
f 184//4 258//4 138//4
f 71//4 182//4 258//4
f 259//4 181//4 70//4
f 132//4 259//4 179//4
f 20//4 155//4 259//4
f 260//4 180//4 30//4
f 92//4 260//4 86//4
f 36//4 179//4 260//4
f 261//4 116//4 14//4
f 180//4 261//4 126//4
f 70//4 178//4 261//4
f 262//4 177//4 69//4
f 144//4 262//4 175//4
f 9//2 142//2 262//2
f 263//4 176//4 59//4
f 104//4 263//4 155//4
f 48//4 175//4 263//4
f 264//4 117//4 24//4
f 176//4 264//4 115//4
f 69//4 174//4 264//4
f 265//4 173//4 68//4
f 160//4 265//4 171//4
f 25//5 158//5 265//5
f 266//4 172//4 34//4
f 120//4 266//4 130//4
f 64//4 171//4 266//4
f 267//4 89//4 8//4
f 172//4 267//4 90//4
f 68//4 170//4 267//4
f 268//4 169//4 67//4
f 133//4 268//4 167//4
f 21//5 159//5 268//5
f 269//4 168//4 46//4
f 93//4 269//4 142//4
f 37//4 167//4 269//4
f 270//4 120//4 18//4
f 168//4 270//4 102//4
f 67//4 166//4 270//4
f 271//4 165//4 66//4
f 145//8 271//8 163//8
f 7//8 136//8 271//8
f 272//7 164//7 63//7
f 105//11 272//11 159//11
f 49//8 163//8 272//8
f 273//7 121//7 25//7
f 164//7 273//7 119//7
f 66//4 162//4 273//4
f 274//4 161//4 65//4
f 165//4 274//4 162//4
f 40//4 96//4 274//4
f 275//4 160//4 64//4
f 169//4 275//4 166//4
f 63//5 119//5 275//5
f 276//4 129//4 33//4
f 173//4 276//4 170//4
f 62//5 118//5 276//5
f 277//4 157//4 61//4
f 177//4 277//4 174//4
f 46//2 102//2 277//2
f 278//4 156//4 60//4
f 181//4 278//4 178//4
f 59//4 115//4 278//4
f 279//4 125//4 29//4
f 185//4 279//4 182//4
f 58//4 114//4 279//4
f 280//4 153//4 57//4
f 189//4 280//4 186//4
f 47//2 103//2 280//2
f 281//4 152//4 56//4
f 193//4 281//4 190//4
f 55//2 111//2 281//2
f 282//4 132//4 36//4
f 197//4 282//4 194//4
f 54//4 110//4 282//4
f 283//4 149//4 53//4
f 201//4 283//4 198//4
f 44//4 100//4 283//4
f 284//4 148//4 52//4
f 205//4 284//4 202//4
f 51//4 107//4 284//4
f 285//4 133//4 37//4
f 209//4 285//4 206//4
f 50//4 106//4 285//4
f 286//3 145//3 49//3
f 213//4 286//4 210//4
f 32//4 88//4 286//4
f 287//4 144//4 48//4
f 217//4 287//4 214//4
f 35//2 91//2 287//2
f 288//4 137//4 41//4
f 221//4 288//4 218//4
f 34//2 90//2 288//2
f 289//1 141//1 45//1
f 225//4 289//4 222//4
f 28//4 84//4 289//4
